<?xml version="1.0" encoding="UTF-8"?><svg id="Layer_1" xmlns="http://www.w3.org/2000/svg" viewBox="0 0 970 617"><defs><style>.cls-1{fill:#fff;}.cls-2{fill:#eb1e24;}</style></defs><path class="cls-2" d="M801.7,372H167.3c-4.35,0-7.3-3.02-7.3-7.13v-113.74c0-4.11,2.95-7.13,7.29-7.13h634.4c4.35,0,7.29,3.02,7.29,7.13v113.75c0,4.09-2.95,7.13-7.3,7.13ZM251.01,312.08l3.48-9.43-12.65-.2,3.84-9.56,8.75.08-1.82,5.44,15.52-.02,5.85-15.6-50.51.08,6.53,7.63-12.89,32.38-10.31,10.2,19.25.22c6.39.07,11.53-3.61,12.77-10.44l-5.11.08,4.36-10.83,12.95-.04ZM294.82,333.13c3.91-.03,9.79-2.6,11.16-6.04l14.57-36.55-6.55-7.77-24.23.13c-3.3.02-9.89,2.13-11.23,5.46l-14.88,36.8,6.32,8.15,24.83-.17ZM347.76,333.08c3.36-.02,7.91-4.61,8.94-7.16l6.7-16.51c.47-1.15.1-3.86-.53-4.8-.53-.78-2.74-1.69-3.76-1.7l-19.37-.05,3.56-9.16,9.36-.54-1.23,4.54,14.9-.13,5.79-14.85-32.3.11c-3.45.01-9.98,2.24-11.27,5.38l-6.62,16.09,7.11,7.82,16.22.14-3.92,10.21h-8.79s1.46-4.84,1.46-4.84l-16.23-.03-6.1,15.68,36.08-.22ZM390.19,311.82l13.36.04,3.55-9.49-13.11-.11,3.83-9.37,9.49.02-2.16,5.5,14.59.05,6.12-15.7-51.01.04,6.84,7.58-12.85,32.32-10.13,10.29,37.23-.07c6.81-.01,11.75-4.12,14.04-9.9l2.81-7.1-14.67-.06-2.42,6.54h-9.72s4.24-10.58,4.24-10.58ZM468.95,325.34l12.41-31.05,4.21-1.41,4.19-10.08h-20.62s-9.66,24.56-9.66,24.56l-6.2-24.64-25.49.13,6.72,7.63-13.04,32.67-9.97,9.97,22.01.09,10.1-24.96,6.14,25.01,8.34-.05c4.86-.03,8.9-2.95,10.87-7.87ZM537.44,323.14l-5.3-.3,11.77-29.69,5.29-.06-2.01,5.28,13.62.08,5.97-15.63-53.7-.02-6.96,15.62,13.88-.11,2.23-4.85c.42-.91,3.66-.52,4.88-.22l-12.6,29.34-10.14,10.57,21.66.04c6.09.01,9.96-4.05,11.41-10.06ZM588.75,333.04c3.04-.04,8.61-3.03,9.62-5.55l14.74-36.82-6.41-7.88-24.83.14c-4.07.02-9.76,2.72-11.27,6.49l-14.41,36.06,6.62,7.88,25.93-.33ZM638.82,333.11c3.4-.03,9.39-2.65,10.54-5.5l14.81-36.67-6.8-8.28-24.61.3c-3.37.04-9.43,2.45-10.79,5.84l-14.71,36.57,6.54,7.96,25.01-.22ZM689.88,316.04l-2.89,6.28-9.36-.21,11.73-28.67,4.08-1.15,3.62-9.53-30.28.06,6.62,8.01-12.79,31.89-10.07,10.45,39.62.13c3.76.01,8.52-2.47,10.05-6.02l4.87-11.34-15.2.11ZM751.63,325.31l6.44-16.08c.47-1.17-.07-4.21-.85-4.89s-2.92-1.42-3.97-1.42l-18.92-.13,3.73-9.29,9.17-.23-.94,4.41,14.52-.02,6.05-14.88-32.02.04c-3.9,0-10.4,2.26-11.88,5.8l-6.47,15.44,7.26,8.2,16.23-.11-4.01,10.24-8.96.05,1.78-4.79-16.3-.02-6.26,15.65,34.9-.08c4.1,0,8.89-3.87,10.49-7.86Z"/><path class="cls-1" d="M468.95,325.34c-1.97,4.92-6.01,7.84-10.87,7.87l-8.34.05-6.14-25.01-10.1,24.96-22.01-.09,9.97-9.97,13.04-32.67-6.72-7.63,25.49-.13,6.2,24.64,9.66-24.57h20.62s-4.19,10.09-4.19,10.09l-4.21,1.41-12.41,31.05Z"/><path class="cls-1" d="M588.75,333.04l-25.93.33-6.62-7.88,14.41-36.06c1.51-3.77,7.2-6.47,11.27-6.49l24.83-.14,6.41,7.88-14.74,36.82c-1.01,2.52-6.58,5.51-9.62,5.55ZM583.39,322.83l11.71-29.67-9.01.03-11.74,29.53,9.03.11Z"/><path class="cls-1" d="M294.82,333.13l-24.83.17-6.32-8.15,14.88-36.8c1.35-3.33,7.93-5.44,11.23-5.46l24.23-.13,6.55,7.77-14.57,36.55c-1.37,3.44-7.25,6.02-11.16,6.04ZM290.8,322.84l11.72-29.57-9.03.06-11.8,29.54,9.1-.03Z"/><path class="cls-1" d="M638.82,333.11l-25.01.22-6.54-7.96,14.71-36.57c1.36-3.38,7.42-5.79,10.79-5.84l24.61-.3,6.8,8.28-14.81,36.67c-1.15,2.85-7.14,5.47-10.54,5.5ZM634.56,322.59l11.65-29.44-9.04.05-11.73,29.56,9.12-.17Z"/><path class="cls-1" d="M390.19,311.82l-4.24,10.57h9.72s2.42-6.52,2.42-6.52l14.67.06-2.81,7.1c-2.29,5.78-7.24,9.89-14.04,9.9l-37.23.07,10.13-10.29,12.85-32.32-6.84-7.58,51.01-.04-6.12,15.7-14.59-.05,2.16-5.5-9.49-.02-3.83,9.37,13.11.11-3.55,9.49-13.36-.04Z"/><path class="cls-1" d="M347.76,333.08l-36.08.22,6.1-15.68,16.23.03-1.46,4.83h8.79s3.92-10.2,3.92-10.2l-16.22-.14-7.11-7.82,6.62-16.09c1.29-3.14,7.82-5.36,11.27-5.38l32.3-.11-5.79,14.85-14.9.13,1.23-4.54-9.36.54-3.56,9.16,19.37.05c1.02,0,3.24.91,3.76,1.7.63.94,1,3.65.53,4.8l-6.7,16.51c-1.04,2.55-5.58,7.14-8.94,7.16Z"/><path class="cls-1" d="M751.63,325.31c-1.6,4-6.39,7.85-10.49,7.86l-34.9.08,6.26-15.65,16.3.02-1.78,4.79,8.96-.05,4.01-10.24-16.23.11-7.26-8.2,6.47-15.44c1.48-3.54,7.98-5.79,11.88-5.8l32.02-.04-6.05,14.88-14.52.02.94-4.41-9.17.23-3.73,9.29,18.92.13c1.04,0,3.19.74,3.97,1.42s1.32,3.72.85,4.89l-6.44,16.08Z"/><path class="cls-1" d="M537.44,323.14c-1.44,6-5.32,10.07-11.41,10.06l-21.66-.04,10.14-10.57,12.6-29.34c-1.22-.3-4.46-.68-4.88.22l-2.23,4.85-13.88.11,6.96-15.62,53.7.02-5.97,15.63-13.62-.08,2.01-5.28-5.29.06-11.77,29.69,5.3.3Z"/><path class="cls-1" d="M251.01,312.08l-12.95.04-4.36,10.83,5.11-.08c-1.24,6.83-6.38,10.51-12.77,10.44l-19.25-.22,10.31-10.2,12.89-32.38-6.53-7.63,50.51-.08-5.85,15.6-15.52.02,1.82-5.44-8.75-.08-3.84,9.56,12.65.2-3.48,9.43Z"/><path class="cls-1" d="M689.88,316.04l15.2-.11-4.87,11.34c-1.53,3.55-6.29,6.03-10.05,6.02l-39.62-.13,10.07-10.45,12.79-31.89-6.62-8.01,30.28-.06-3.62,9.53-4.08,1.15-11.73,28.67,9.36.21,2.89-6.28Z"/><polygon class="cls-2" points="583.39 322.83 574.36 322.72 586.1 293.2 595.11 293.16 583.39 322.83"/><polygon class="cls-2" points="290.8 322.84 281.7 322.86 293.5 293.32 302.52 293.26 290.8 322.84"/><polygon class="cls-2" points="634.56 322.59 625.44 322.77 637.17 293.2 646.2 293.15 634.56 322.59"/></svg>